<?xml version="1.0" encoding="UTF-8"?>
<svg width="22px" height="20px" viewBox="0 0 22 20" version="1.1" xmlns="http://www.w3.org/2000/svg" xmlns:xlink="http://www.w3.org/1999/xlink">
    <title>Group 5</title>
    <g id="⌚️-iOS-Clock-App" stroke="none" stroke-width="1" fill="none" fill-rule="evenodd">
        <g id="iOS-Clock---Dark" transform="translate(-60.000000, -834.000000)" fill="#7C7C7C" fill-rule="nonzero">
            <g id="Menu" transform="translate(60.000000, 824.000000)">
                <g id="Group-5" transform="translate(0.000000, 10.000000)">
                    <path d="M1.25666331,4.6406495 C1.09840272,4.95716634 0.676364301,5.06267921 0.359847469,4.9044099 C0.0433306376,4.74614931 -0.114938669,4.32411089 0.0960870732,4.00759406 C0.834633608,2.58323564 1.83696232,1.37086139 3.04953262,0.315732673 C3.36604945,0.104717822 3.78807915,0.157472079 3.99910489,0.421241188 C4.26286529,0.685001584 4.21011975,1.10703129 3.89359638,1.37081347 C2.83851123,2.26762931 1.94256668,3.3745996 1.25686371,4.64075406 L1.25666331,4.6406495 Z" id="Path"></path>
                    <path d="M17.8698217,1.37070891 C17.6060613,1.10694851 17.5533049,0.684918812 17.7643132,0.421136634 C18.0280736,0.157376238 18.4501033,0.104619802 18.7138855,0.315628119 C19.9272182,1.37071327 20.9814102,2.58315287 21.7200439,4.0074895 C21.8783045,4.32400634 21.7727982,4.74603604 21.4562835,4.90430535 C21.1397667,5.06256594 20.717737,4.9570596 20.5594677,4.64054495 C19.8736776,3.37445584 18.9768617,2.26737663 17.8698043,1.37060436 L17.8698217,1.37070891 Z" id="Path"></path>
                    <path d="M10.9080197,-7.10542736e-15 C16.2879999,-7.10542736e-15 20.6649108,4.37778218 20.6649108,9.80960396 C20.6649108,12.7101188 19.3988217,15.2943564 17.3949702,17.087901 L19.1886019,18.8815327 C19.4523623,19.0925475 19.4523623,19.5673228 19.1886019,19.831105 C18.9248415,20.0421198 18.5028118,20.0421198 18.2390296,19.831105 L16.3407564,17.9328317 C14.8109069,18.9879168 12.9126772,19.5681941 10.9080633,19.5681941 C8.85152074,19.5681941 7.00513262,18.987895 5.42331084,17.9328317 L3.57777222,19.831105 C3.31401183,20.0421198 2.89198212,20.0421198 2.62819994,19.831105 C2.36443955,19.5673446 2.36443955,19.0925584 2.62819994,18.8815327 L4.36907519,17.087901 C2.36528905,15.2942693 1.0991346,12.7101188 1.0991346,9.80960396 C1.0991346,4.37691089 5.47691678,-7.10542736e-15 10.9087386,-7.10542736e-15 L10.9080197,-7.10542736e-15 Z M10.9080197,1.31884554 C6.21374252,1.31884554 2.41645539,5.1163505 2.41645539,9.8104099 C2.41645539,14.4519743 6.21396034,18.2492614 10.9080197,18.2492614 C15.5495841,18.2492614 19.3468712,14.4517564 19.3468712,9.8104099 C19.3468712,5.11613267 15.5493663,1.31884554 10.9080197,1.31884554 Z" id="Shape"></path>
                    <path d="M15.1801584,9.12385743 C15.5494316,9.12385743 15.8659485,9.44037426 15.8659485,9.80964752 C15.8659485,10.1789208 15.5494316,10.4954376 15.1801584,10.4954376 L10.9080197,10.4426834 C10.6442594,10.4426834 10.4332336,10.3371749 10.3277207,10.178923 L7.37427519,5.74842792 C7.16326034,5.43191109 7.2160146,5.00988139 7.53253579,4.79885564 C7.84905262,4.64059505 8.27108232,4.69334713 8.48210806,5.0098705 L11.2244843,9.1238705 L15.1801584,9.12385743 Z" id="Path"></path>
                </g>
            </g>
        </g>
    </g>
</svg>