<?xml version="1.0" encoding="UTF-8"?>
<svg width="20px" height="22px" viewBox="0 0 20 22" version="1.1" xmlns="http://www.w3.org/2000/svg" xmlns:xlink="http://www.w3.org/1999/xlink">
    <title>Moon</title>
    <g id="⌚️-iOS-Clock-App" stroke="none" stroke-width="1" fill="none" fill-rule="evenodd">
        <g id="iOS-Clock---Dark" transform="translate(-197.000000, -252.000000)" fill="#D8D8D8">
            <g id="Clock" transform="translate(57.000000, 225.000000)">
                <path d="M152.807223,27.0249118 C152.64386,26.9623566 152.449436,27.0208101 152.345191,27.1643799 C152.238956,27.3110256 152.24096,27.5140676 152.348198,27.6576443 C153.72226,29.5045831 154.447866,31.7084554 154.447866,34.0299928 C154.447866,39.8352802 149.831655,44.5586887 144.158117,44.5586887 C142.916368,44.5586887 141.69866,44.3330771 140.539964,43.8869838 C140.377603,43.826479 140.184178,43.884933 140.078933,44.0274785 C139.972697,44.1731003 139.973698,44.3761423 140.081939,44.5207428 C142.200645,47.3675993 145.418857,49 148.908469,49 C155.024077,49 160,43.9093145 160,37.6516909 C160.001002,32.9477095 157.109479,28.6774248 152.807053,27.0245469 L152.807223,27.0249118 Z" id="Moon"></path>
            </g>
        </g>
    </g>
</svg>