<?xml version="1.0" encoding="UTF-8"?>
<svg width="24px" height="22px" viewBox="0 0 24 22" version="1.1" xmlns="http://www.w3.org/2000/svg" xmlns:xlink="http://www.w3.org/1999/xlink">
    <title>Settings</title>
    <g id="⌚️-iOS-Clock-App" stroke="none" stroke-width="1" fill="none" fill-rule="evenodd">
        <g id="iOS-Clock---Light" transform="translate(-20.000000, -40.000000)" fill="#A1B0CA" fill-rule="nonzero">
            <g id="Settings" transform="translate(20.000000, 40.000000)">
                <path d="M23.1957333,17.8666667 L19.628,17.8666667 C19.27176,16.4874933 18.02384,15.4666667 16.5333333,15.4666667 C15.0428267,15.4666667 13.7938667,16.4874933 13.4386667,17.8666667 L0.8,17.8666667 C0.358346667,17.8666667 -2.13162821e-14,18.2250133 -2.13162821e-14,18.6666667 C-2.13162821e-14,19.10832 0.358346667,19.4666667 0.8,19.4666667 L13.4386667,19.4666667 C13.7949067,20.84584 15.0428267,21.8666667 16.5333333,21.8666667 C18.02384,21.8666667 19.2728,20.84584 19.628,19.4666667 L23.1957333,19.4666667 C23.6373867,19.4666667 23.9957356,19.10832 23.9957356,18.6666667 C23.9967749,18.2250133 23.6384533,17.8666667 23.1957333,17.8666667 Z M16.5333333,20.2666667 C15.65104,20.2666667 14.9333333,19.54896 14.9333333,18.6666667 C14.9333333,17.7843733 15.65104,17.0666667 16.5333333,17.0666667 C17.4156267,17.0666667 18.1333333,17.7843733 18.1333333,18.6666667 C18.1333333,19.54896 17.4156267,20.2666667 16.5333333,20.2666667 Z" id="Shape"></path>
                <path d="M23.2,10.1333333 L11.0946667,10.1333333 C10.7384267,8.75416 9.49050667,7.73333333 8,7.73333333 C6.50949333,7.73333333 5.26053333,8.75416 4.90533333,10.1333333 L0.8,10.1333333 C0.358346667,10.1333333 0,10.49168 0,10.9333333 C0,11.3749867 0.358346667,11.7333333 0.8,11.7333333 L4.90533333,11.7333333 C5.26157333,13.1125067 6.50949333,14.1333333 8,14.1333333 C9.49050667,14.1333333 10.7394667,13.1125067 11.0946667,11.7333333 L23.2,11.7333333 C23.6416533,11.7333333 24,11.3749867 24,10.9333333 C24,10.49168 23.6416533,10.1333333 23.2,10.1333333 Z M8,12.5333333 C7.11770667,12.5333333 6.4,11.8156267 6.4,10.9333333 C6.4,10.05104 7.11770667,9.33333333 8,9.33333333 C8.88229333,9.33333333 9.6,10.05104 9.6,10.9333333 C9.6,11.8156267 8.88229333,12.5333333 8,12.5333333 Z" id="Shape"></path>
                <path d="M0.8,4 L13.4386667,4 C13.7949067,5.37917333 15.0428267,6.4 16.5333333,6.4 C18.02384,6.4 19.2728,5.37917333 19.628,4 L23.2,4 C23.6416533,4 24,3.64165333 24,3.2 C24,2.75834667 23.6416533,2.4 23.2,2.4 L19.628,2.4 C19.2728,1.02082667 18.02384,0 16.5333333,0 C15.0428267,0 13.7938667,1.02082667 13.4386667,2.4 L0.8,2.4 C0.358346667,2.4 0,2.75834667 0,3.2 C0,3.64165333 0.358346667,4 0.8,4 Z M16.5333333,1.6 C17.4156267,1.6 18.1333333,2.31770667 18.1333333,3.2 C18.1333333,4.08229333 17.4156267,4.8 16.5333333,4.8 C15.65104,4.8 14.9333333,4.08229333 14.9333333,3.2 C14.9333333,2.31770667 15.65104,1.6 16.5333333,1.6 Z" id="Shape"></path>
            </g>
        </g>
    </g>
</svg>