<?xml version="1.0" encoding="UTF-8"?>
<svg width="21px" height="24px" viewBox="0 0 21 24" version="1.1" xmlns="http://www.w3.org/2000/svg" xmlns:xlink="http://www.w3.org/1999/xlink">
    <title>Group 4</title>
    <g id="⌚️-iOS-Clock-App" stroke="none" stroke-width="1" fill="none" fill-rule="evenodd">
        <g id="iOS-Clock---Light" transform="translate(-243.000000, -832.000000)" fill="#A1B0CA" fill-rule="nonzero">
            <g id="Menu" transform="translate(60.000000, 824.000000)">
                <g id="Group-4" transform="translate(184.000000, 9.000000)">
                    <path d="M9.85680237,13.8774211 L12.4678287,13.8774211 C12.7505129,13.8774211 12.9818024,13.6461289 12.9818024,13.3634474 C12.9818024,13.0807632 12.7505103,12.8494737 12.4678287,12.8494737 L10.3707761,12.8494737 L10.3707761,9.49842105 C10.3707761,9.21573684 10.1394839,8.98444737 9.85680237,8.98444737 C9.57412079,8.98444737 9.34282869,9.21573947 9.34282869,9.49842105 L9.34282869,13.3584211 C9.34282869,13.6411053 9.57412079,13.8775526 9.85680237,13.8775526 L9.85680237,13.8774211 Z" id="Path"></path>
                    <path d="M19.5660129,6.51715789 C19.7664655,6.31670526 19.7664655,5.98776316 19.5608732,5.79244737 L17.5409258,3.79305263 C17.3404732,3.5926 17.0115311,3.5926 16.8162153,3.79819237 C16.6157626,3.998645 16.6157626,4.32758711 16.8213553,4.52290289 L18.8413026,6.52229763 C18.9389579,6.61995289 19.0725947,6.67135289 19.2010921,6.67135289 C19.3347263,6.67135289 19.4683553,6.61995553 19.5660132,6.51715816 L19.5660129,6.51715789 Z" id="Path" stroke="#A1B0CA" stroke-width="0.25"></path>
                    <path d="M9.85680237,22.1166316 C14.8681182,22.1166316 18.9491708,18.0716316 18.9491708,13.1013684 C18.9491708,8.28531579 15.1199603,4.33794737 10.3194339,4.09636842 L10.3194339,1.02794737 L11.4142234,1.02794737 C11.6969076,1.02794737 11.9281971,0.796655263 11.9281971,0.513973684 C11.9281971,0.231289474 11.696905,1.77635684e-15 11.4142234,1.77635684e-15 L8.29948658,1.77635684e-15 C8.01680237,1.77635684e-15 7.7855129,0.231292105 7.7855129,0.513973684 C7.7855129,0.796657895 8.016805,1.02794737 8.29948658,1.02794737 L9.29146027,1.02794737 L9.29146027,4.10663158 C4.54224974,4.39960526 0.76461816,8.32136842 0.76461816,13.1013684 C0.76461816,18.0716316 4.84567079,22.1166316 9.85698658,22.1166316 L9.85680237,22.1166316 Z M9.85680237,5.11426316 C14.302855,5.11426316 17.9212761,8.69663158 17.9212761,13.1016316 C17.9212761,17.5066316 14.302855,21.089 9.85680237,21.089 C5.41074974,21.089 1.79232869,17.5066316 1.79232869,13.1016316 C1.79232869,8.69663158 5.41074974,5.11426316 9.85680237,5.11426316 Z" id="Shape" stroke="#A1B0CA" stroke-width="0.25"></path>
                    <path d="M2.89759184,3.79321053 C2.69713921,3.59275789 2.37332869,3.58761842 2.17288132,3.78807079 L0.152933949,5.78746553 C-0.0475186822,5.98791816 -0.0526581559,6.31172868 0.147794213,6.51217605 C0.250588949,6.61497079 0.379086318,6.66637079 0.512715265,6.66637079 C0.641210002,6.66637079 0.774844213,6.61497342 0.872504739,6.51731553 L2.89245211,4.51792079 C3.09290474,4.32260763 3.09290474,3.99365763 2.89759211,3.79321026 L2.89759184,3.79321053 Z" id="Path" stroke="#A1B0CA" stroke-width="0.25"></path>
                </g>
            </g>
        </g>
    </g>
</svg>