<?xml version="1.0" encoding="UTF-8"?>
<svg width="24px" height="24px" viewBox="0 0 24 24" version="1.1" xmlns="http://www.w3.org/2000/svg" xmlns:xlink="http://www.w3.org/1999/xlink">
    <title>Sun</title>
    <g id="⌚️-iOS-Clock-App" stroke="none" stroke-width="1" fill="none" fill-rule="evenodd">
        <g id="iOS-Clock---Light" transform="translate(-182.000000, -272.000000)" fill="#000000" fill-rule="nonzero">
            <g id="Clock" transform="translate(44.000000, 246.000000)">
                <path d="M146.314175,46.0262993 C146.568527,45.9095323 146.858714,45.8991262 147.121102,45.9962441 C147.666778,46.1951027 147.948871,46.7962662 147.754644,47.3431201 L147.754644,47.3431201 L147.029768,49.3351104 C146.943079,49.6125477 146.747687,49.8437849 146.48756,49.9732695 C146.226283,50.102754 145.924538,50.1189404 145.651697,50.019514 C145.377693,49.9200994 145.158037,49.7131432 145.04127,49.4472367 C144.924503,49.1801877 144.922189,48.8784369 145.035489,48.6102189 L145.035489,48.6102189 L145.766166,46.6182287 C145.863302,46.3557968 146.059823,46.1430662 146.314175,46.0262993 Z M153.608976,45.7129896 C153.864482,45.5939082 154.156975,45.5823478 154.421725,45.680617 C154.685311,45.777723 154.90035,45.9765846 155.017117,46.2332422 L155.017117,46.2332422 L155.905011,48.1570127 C156.041433,48.4148275 156.065711,48.7165665 155.972065,48.9917219 C155.879576,49.2668802 155.677263,49.4923284 155.413668,49.6137212 C155.148928,49.7362699 154.84718,49.7443615 154.57665,49.6368435 C154.306109,49.5293195 154.092239,49.3154436 153.984721,49.0449141 L153.984721,49.0449141 L153.096827,47.1211437 C152.850584,46.590479 153.079483,45.9615659 153.608976,45.7129896 Z M152.392627,31.4218099 C154.137515,32.0574219 155.55967,33.3592082 156.343613,35.0415579 C157.128813,36.7238238 157.212791,38.6493043 156.578082,40.3937275 C155.9423,42.1392393 154.640166,43.5599255 152.957368,44.3447764 C151.274653,45.1286783 149.348658,45.2126339 147.603769,44.5780937 C145.858881,43.9435702 144.436727,42.6417839 143.652783,40.9583457 C142.870849,39.2760797 142.78796,37.3517157 143.422675,35.6072925 C144.057368,33.8639578 145.358413,32.4433274 147.038922,31.6562436 C148.721743,30.8712252 150.647738,30.7872696 152.392627,31.4218099 Z M140.932218,41.1014381 C141.188878,40.9777337 141.483677,40.9627046 141.750738,41.0586623 C142.017816,41.1546141 142.236315,41.3534757 142.355394,41.6112876 C142.474474,41.8702567 142.484877,42.1650552 142.384296,42.4309618 C142.283728,42.6968564 142.080255,42.9107442 141.820129,43.0251996 L141.820129,43.0251996 L139.899821,43.9130937 C139.645469,44.0333293 139.352976,44.0460469 139.088227,43.9500893 C138.82464,43.8541079 138.60845,43.6564272 138.490506,43.4009357 C138.371425,43.1454294 138.358707,42.8529393 138.455822,42.5870328 C138.552928,42.3222924 138.75179,42.1072563 139.008447,41.9893321 L139.008447,41.9893321 Z M158.54583,40.3245734 C158.800182,40.205495 159.092678,40.1939346 159.35627,40.2910465 L159.35627,40.2910465 L161.34826,41.0159232 C161.87083,41.2355882 162.129799,41.8263633 161.935572,42.3581823 C161.742485,42.8911436 161.164436,43.1778594 160.623383,43.0102221 L160.623383,43.0102221 L160.623383,43.0113781 L158.631393,42.2830386 C158.366653,42.1870573 158.150462,41.9905308 158.032538,41.7350304 C157.913457,41.4795241 157.900742,41.1881824 157.997821,40.9245826 C158.093803,40.6598422 158.290329,40.4436518 158.54583,40.3245734 Z M148.150874,34.0442647 L148.146444,34.0442501 C147.097214,34.5333454 146.284856,35.4192369 145.889136,36.5077529 C145.493416,37.5953676 145.544774,38.7962308 146.033726,39.8457712 C146.522665,40.8943859 147.409224,41.7070032 148.496443,42.1028493 C149.583711,42.4996455 150.784192,42.4473208 151.833398,41.9572608 C152.882628,41.4681655 153.694036,40.582274 154.089756,39.4947324 C154.485476,38.4061433 154.433168,37.2062545 153.944214,36.1567141 C153.454325,35.1099995 152.569666,34.2992822 151.484175,33.9034361 C150.397857,33.5075899 149.199276,33.5589647 148.150874,34.0442647 Z M138.612015,33.0710757 C138.867522,32.9519943 139.15886,32.9392797 139.42361,33.0363916 L139.42361,33.0363916 L141.417908,33.7612683 C141.96821,33.9624059 142.251457,34.5705245 142.05145,35.119687 C141.851467,35.6699889 141.243348,35.953236 140.691876,35.753229 L140.691876,35.753229 L138.697577,35.0283523 C138.432836,34.932371 138.2178,34.7358445 138.098722,34.4803441 C137.979643,34.2259921 137.968083,33.9334961 138.065161,33.6699306 C138.159988,33.4051902 138.357669,33.1889999 138.612015,33.0710757 Z M160.158603,32.1393523 C160.67885,31.9462945 161.260373,32.1867658 161.492753,32.6908232 C161.726299,33.1948807 161.530903,33.7925932 161.046497,34.0631227 L161.046497,34.0631227 L159.122727,34.9510167 C158.592092,35.1972594 157.961995,34.9683603 157.713426,34.4400041 C157.594348,34.1833435 157.582787,33.8896963 157.679899,33.624947 C157.778159,33.3602066 157.978175,33.1451705 158.234833,33.0272463 L158.234833,33.0272463 Z M144.646869,26.4927471 C144.902376,26.3736687 145.193715,26.3621083 145.45731,26.4592203 C145.720896,26.5563263 145.935935,26.7551909 146.052702,27.0106913 L146.052702,27.0106913 L146.940596,28.9344617 C147.077018,29.1911223 147.101296,29.4928612 147.00765,29.7691709 C146.915161,30.0443293 146.712848,30.2697774 146.448099,30.3911703 C146.184513,30.5137189 145.88161,30.5218106 145.612235,30.4142925 C145.341694,30.3067685 145.127824,30.0928926 145.020306,29.8223631 L145.020306,29.8223631 L144.132412,27.9020555 C143.886169,27.3702365 144.116223,26.7401692 144.646869,26.4927471 Z M153.555927,26.0985325 C153.810279,25.9806084 154.102775,25.9678908 154.366299,26.0638455 C154.632224,26.1574887 154.850717,26.3528609 154.972109,26.6083613 C155.093499,26.8627134 155.109686,27.1563577 155.014885,27.4222642 L155.014885,27.4222642 L154.286546,29.416563 C154.086562,29.9668649 153.478429,30.2500883 152.928127,30.050105 C152.377825,29.8501217 152.094578,29.242003 152.294585,28.6916863 L152.294585,28.6916863 L153.007919,26.6973875 C153.1039,26.4326471 153.301581,26.217611 153.555927,26.0985325 Z" id="Sun"></path>
            </g>
        </g>
    </g>
</svg>