<?xml version="1.0" encoding="UTF-8"?>
<svg width="56px" height="47px" viewBox="0 0 56 47" version="1.1" xmlns="http://www.w3.org/2000/svg" xmlns:xlink="http://www.w3.org/1999/xlink">
    <title>Sydney</title>
    <g id="⌚️-iOS-Clock-App" stroke="none" stroke-width="1" fill="none" fill-rule="evenodd">
        <g id="iOS-Clock---Light" transform="translate(-293.000000, -717.000000)" fill="#ECEFF5" fill-rule="nonzero">
            <g id="Sydney" transform="translate(273.000000, 612.000000)">
                <path d="M74.8284624,144.735716 L73.6586329,144.735716 L73.6586329,141.22398 C73.6586329,140.57872 73.1340694,140.054151 72.4888033,140.054151 L71.3628565,140.051956 C72.5941554,137.183289 74.0537453,134.665852 75.7327485,132.595838 C76.0224639,132.238079 76.0773369,131.742065 75.8688296,131.329422 C75.6603224,130.918987 75.216939,130.618309 74.7692348,130.690735 C72.3241675,130.807061 69.9471998,131.256996 67.6558623,131.952769 C66.5321067,117.420924 54.6646864,105.715886 39.9569739,105.006797 C39.5004482,104.951926 39.0637006,105.235059 38.8551877,105.647674 C38.6466805,106.058109 38.6993566,106.556343 38.9934602,106.914091 C42.0245099,110.65187 44.2544904,115.548466 45.5230418,121.042507 C40.6615068,116.988671 34.6675633,114.607321 28.2823843,114.302221 C27.8412204,114.231987 27.3913023,114.530484 27.1827895,114.940908 C26.9742823,115.35354 27.0269583,115.849577 27.3188707,116.207324 C30.2138335,119.776147 32.3626227,124.411863 33.6551663,129.591253 C29.8032132,127.49955 25.5585076,126.283647 21.2258681,126.077325 C20.7627573,126.009288 20.3347862,126.303391 20.1262734,126.716012 C19.9177661,127.128644 19.9704422,127.624681 20.2623545,127.982428 C22.8412611,131.162769 24.8561548,135.330666 26.199155,140.051563 L25.6636181,140.051563 C25.0183577,140.051563 24.4937886,140.576126 24.4937886,141.221392 L24.4937886,144.733128 L23.3239591,144.733128 C22.6786986,144.733128 22.1541296,145.257692 22.1541296,145.902958 L22.1541296,150.584523 C22.1541296,151.229784 22.678693,151.754353 23.3239591,151.754353 L74.8301705,151.754353 C75.4754309,151.754353 76,151.229789 76,150.584523 L76,145.902958 C75.9978047,145.259889 75.4732396,144.73532 74.8279792,144.73532 L74.8284624,144.735716 Z M72.3374503,133.270038 C71.0006701,135.269537 69.8176364,137.541208 68.8058069,140.051903 L58.0424764,140.051903 C58.1412432,139.961913 58.2268397,139.863146 58.3256122,139.773161 C58.4309643,139.678783 58.5407046,139.593186 58.6482537,139.500999 C60.2592696,138.12923 62.0151376,136.941814 63.8829317,135.982689 C63.9290231,135.958545 63.9773103,135.934402 64.0234012,135.910257 C64.9825265,135.423002 65.9701952,134.992823 66.9798334,134.624063 C68.7049667,133.998524 70.4959521,133.535425 72.3374503,133.269825 L72.3374503,133.270038 Z M42.3954166,107.590539 C54.9258528,109.403494 64.6952215,119.932184 65.3975688,132.721646 C65.2636845,132.772127 65.1429707,132.846753 65.0090808,132.901621 C64.2386902,133.219874 63.4792562,133.568851 62.737409,133.95295 C62.5223166,134.064888 62.3116124,134.179016 62.0987226,134.297539 C61.3963754,134.68383 60.7093674,135.098664 60.0377549,135.546424 C59.8072951,135.697867 59.5790323,135.84931 59.3551858,136.007338 C58.7428514,136.437523 58.1480476,136.89842 57.5642004,137.379107 C57.3095967,137.587614 57.0506104,137.791739 56.8025751,138.009028 C56.2845912,138.463357 55.7929369,138.950623 55.3034852,139.444457 C55.094978,139.655161 54.8667151,139.839525 54.6647987,140.056791 L48.4206511,140.054597 C48.5479501,139.282015 48.6159935,138.494094 48.7037869,137.710499 C48.7520736,137.273729 48.8223094,136.839139 48.864012,136.4002 C48.9978962,134.894536 49.0791044,133.380107 49.0791044,131.861295 C49.0791044,130.608027 49.0242337,129.370154 48.938635,128.143238 C48.9166863,127.846937 48.8771768,127.557199 48.8530385,127.263112 C48.7718303,126.328091 48.6708665,125.401892 48.5391792,124.488841 C48.5238152,124.3791 48.5172306,124.267163 48.5018666,124.157423 C48.4996719,124.135474 48.4777232,124.122305 48.4733339,124.100358 C47.5142085,117.849468 45.4379016,112.125619 42.3960639,107.590539 L42.3954166,107.590539 Z M30.7212822,116.885683 C36.6187513,117.730691 42.0419955,120.511536 46.236413,124.86828 C46.4010264,126.011814 46.5239371,127.166248 46.6095336,128.336134 C46.613923,128.391004 46.6117283,128.445874 46.6161177,128.502944 C46.6907407,129.617934 46.7346402,130.739498 46.7346402,131.861062 C46.7346402,132.021288 46.7148868,132.177119 46.7148868,132.339535 C46.7039122,133.638877 46.646849,134.936028 46.5327148,136.224414 C46.4866234,136.742392 46.3988306,137.249392 46.3373724,137.763004 C46.2429938,138.533395 46.1398386,139.299403 46.0125396,140.056589 L37.3910871,140.0522 C37.2089151,131.235776 34.8231371,122.994153 30.7210361,116.885979 L30.7212822,116.885683 Z M23.6669068,128.663203 C27.4178904,129.214107 31.0438,130.574879 34.2965104,132.668773 C34.5072146,133.851807 34.669631,135.032593 34.7925418,136.211244 C34.8013211,136.305622 34.8144898,136.397804 34.8232692,136.492183 C34.9132595,137.394277 34.9549621,138.287551 34.9944677,139.18088 C35.0054417,139.472793 35.0208057,139.764727 35.0251951,140.056623 L28.6754144,140.054428 C27.5209242,135.759154 25.8111301,131.88304 23.6667798,128.66348 L23.6669068,128.663203 Z M73.6588576,149.417844 L24.4945527,149.417844 L24.4945527,147.075937 L25.6643823,147.075937 C26.3096427,147.075937 26.8342118,146.551374 26.8342118,145.906108 L26.8342118,142.394372 L71.3169511,142.394372 L71.3169511,145.906108 C71.3169511,146.551368 71.8415145,147.075937 72.4867806,147.075937 L73.6566101,147.075937 L73.6588576,149.417844 Z"></path>
            </g>
        </g>
    </g>
</svg>